<?xml version="1.0" encoding="utf-8"?>
<!-- Generator: Adobe Illustrator 15.0.2, SVG Export Plug-In . SVG Version: 6.00 Build 0)  -->
<!DOCTYPE svg PUBLIC "-//W3C//DTD SVG 1.1//EN" "http://www.w3.org/Graphics/SVG/1.1/DTD/svg11.dtd">
<svg version="1.1" id="Layer_1" xmlns="http://www.w3.org/2000/svg" xmlns:xlink="http://www.w3.org/1999/xlink" x="0px" y="0px"
	 width="546px" height="600px" viewBox="100.5 0 546 600" enable-background="new 100.5 0 546 600" xml:space="preserve">
<line fill="#FFFFFF" stroke="#000000" stroke-width="12" stroke-linecap="round" stroke-miterlimit="10" x1="396.87" y1="208.221" x2="243.085" y2="54.436"/>
<line fill="none" stroke="#000000" stroke-width="12" stroke-linecap="round" stroke-miterlimit="10" x1="397" y1="532" x2="397" y2="76"/>
<polyline fill="none" stroke="#000000" stroke-width="12" stroke-linecap="round" stroke-miterlimit="10" points="397.78,205.221 
	500.798,102.205 610.465,102.205 "/>
<line fill="none" stroke="#000000" stroke-width="12" stroke-linecap="round" stroke-miterlimit="10" x1="397.78" y1="308.221" x2="521.445" y2="184.555"/>
<g>
	<g>
		
			<line fill="none" stroke="#808080" stroke-width="12" stroke-linecap="round" stroke-miterlimit="10" stroke-dasharray="7,18.6667" x1="405.591" y1="498.703" x2="512.695" y2="605.805"/>
		
			<line fill="none" stroke="#808080" stroke-width="12" stroke-linecap="round" stroke-miterlimit="10" x1="396.87" y1="489.981" x2="398.991" y2="492.103"/>
	</g>
</g>
<line fill="none" stroke="#FF0000" stroke-width="4" stroke-linecap="round" stroke-miterlimit="10" x1="396.87" y1="208.221" x2="243.085" y2="54.436"/>
<text transform="matrix(1 0 0 1 416 495)" font-family="'TrebuchetMS'" font-size="18">Hotel</text>
<text transform="matrix(1 0 0 1 416 396)" font-family="'TrebuchetMS'" font-size="18">Midtown Charter</text>
<text transform="matrix(1 0 0 1 416 417.5996)" font-family="'TrebuchetMS'" font-size="18">High School</text>
<text transform="matrix(1 0 0 1 416 439.2002)" font-family="'TrebuchetMS'" font-size="18">for the Performing Arts</text>
<text transform="matrix(1 0 0 1 416 316)" font-family="'TrebuchetMS'" font-size="18">Brookwood</text>
<text transform="matrix(1 0 0 1 487.667 243.1504)" font-family="'TrebuchetMS'" font-size="18">Sage Hill</text>
<text transform="matrix(1 0 0 1 500.7979 133.7881)" font-family="'TrebuchetMS'" font-size="18">every house;</text>
<text transform="matrix(1 0 0 1 500.7979 155.3877)" font-family="'TrebuchetMS'" font-size="18">every home</text>
<text transform="matrix(1 0 0 1 430.9707 40.9941)" font-family="'TrebuchetMS'" font-size="18">paris urban</text>
<text transform="matrix(1 0 0 1 466.5225 62.5938)" font-family="'TrebuchetMS'" font-size="18">history</text>
<text transform="matrix(1 0 0 1 299.2422 223)" font-family="'TrebuchetMS'" font-size="18">revive285</text>
<text transform="matrix(1 0 0 1 299.2422 98.5879)" font-family="'TrebuchetMS'" font-size="18">Water and</text>
<text transform="matrix(1 0 0 1 342.4751 120.1875)" font-family="'TrebuchetMS'" font-size="18">Light</text>
<text transform="matrix(1 0 0 1 416 358)" font-family="'TrebuchetMS'" font-size="18">urban dorm housing</text>
<text transform="matrix(1 0 0 1 243.085 469.2676)" font-family="'TrebuchetMS'" font-size="18">Galen Collection</text>
<line fill="none" stroke="#FF0000" stroke-width="4" stroke-linecap="round" stroke-miterlimit="10" x1="397" y1="532" x2="397" y2="76"/>
<circle onclick="doStop(&quot;Midtown&quot;)" fill="#FFFFFF" stroke="#000000" stroke-width="2.3881" stroke-miterlimit="10" cx="397.32" cy="387.928" r="10.34"/>
<circle fill="#FFFFFF" stroke="#000000" stroke-width="2.3881" stroke-miterlimit="10" cx="397.32" cy="91.928" r="10.34"/>
<circle fill="#FFFFFF" stroke="#000000" stroke-width="2.3881" stroke-miterlimit="10" cx="397.32" cy="349.928" r="10.34"/>
<g>
	<g>
		
			<line fill="none" stroke="#808080" stroke-width="12" stroke-linecap="round" stroke-miterlimit="10" x1="397" y1="76" x2="397" y2="73"/>
		
			<line fill="none" stroke="#808080" stroke-width="12" stroke-linecap="round" stroke-miterlimit="10" stroke-dasharray="7,19" x1="397" y1="54" x2="397" y2="12"/>
		
			<line fill="none" stroke="#808080" stroke-width="12" stroke-linecap="round" stroke-miterlimit="10" x1="397" y1="3" x2="397" y2="0"/>
	</g>
</g>
<g>
	<g>
		
			<line fill="none" stroke="#808080" stroke-width="12" stroke-linecap="round" stroke-miterlimit="10" x1="397" y1="608" x2="397" y2="605"/>
		
			<line fill="none" stroke="#808080" stroke-width="12" stroke-linecap="round" stroke-miterlimit="10" stroke-dasharray="7,19" x1="397" y1="586" x2="397" y2="544"/>
		
			<line fill="none" stroke="#808080" stroke-width="12" stroke-linecap="round" stroke-miterlimit="10" x1="397" y1="535" x2="397" y2="532"/>
	</g>
</g>
<polyline fill="none" stroke="#FF0000" stroke-width="4" stroke-linecap="round" stroke-miterlimit="10" points="396.87,205.222 
	499.888,102.204 610.465,102.205 "/>
<line fill="none" stroke="#FF0000" stroke-width="4" stroke-linecap="round" stroke-miterlimit="10" x1="397.78" y1="308.221" x2="521.445" y2="184.555"/>
<g>
	<g>
		
			<line fill="none" stroke="#808080" stroke-width="12" stroke-linecap="round" stroke-miterlimit="10" x1="604.838" y1="184.555" x2="601.838" y2="184.555"/>
		
			<line fill="none" stroke="#808080" stroke-width="12" stroke-linecap="round" stroke-miterlimit="10" stroke-dasharray="7,18.6667" x1="583.171" y1="184.556" x2="541.171" y2="184.555"/>
		
			<line fill="none" stroke="#808080" stroke-width="12" stroke-linecap="round" stroke-miterlimit="10" x1="531.838" y1="184.555" x2="528.838" y2="184.555"/>
	</g>
</g>
<circle fill="#FFFFFF" stroke="#000000" stroke-width="2.3881" stroke-miterlimit="10" cx="516.32" cy="84.928" r="10.34"/>
<circle fill="#FFFFFF" stroke="#000000" stroke-width="2.3881" stroke-miterlimit="10" cx="539.32" cy="63.928" r="10.34"/>
<circle onclick="doStop(&quot;Galen&quot;)" fill="#FFFFFF" stroke="#000000" stroke-width="2.3881" stroke-miterlimit="10" cx="397.32" cy="462.928" r="10.34"/>
<circle onclick="doStop(&quot;Hotel&quot;)" fill="#FFFFFF" stroke="#000000" stroke-width="2.3881" stroke-miterlimit="10" cx="397.32" cy="487.928" r="10.34"/>
<circle fill="#FFFFFF" stroke="#000000" stroke-width="2.3881" stroke-miterlimit="10" cx="470.32" cy="237.928" r="10.34"/>
<circle fill="#FFFFFF" stroke="#000000" stroke-width="2.3881" stroke-miterlimit="10" cx="397.32" cy="307.928" r="10.34"/>
<circle fill="#FFFFFF" stroke="#000000" stroke-width="2.3881" stroke-miterlimit="10" cx="397.32" cy="204.928" r="10.34"/>
<g>
	<g>
		
			<line fill="none" stroke="#808080" stroke-width="12" stroke-linecap="round" stroke-miterlimit="10" x1="188.78" y1="0.13" x2="190.901" y2="2.251"/>
		
			<line fill="none" stroke="#808080" stroke-width="12" stroke-linecap="round" stroke-miterlimit="10" stroke-dasharray="7,18.6667" x1="204.101" y1="15.451" x2="233.799" y2="45.149"/>
		
			<line fill="none" stroke="#808080" stroke-width="12" stroke-linecap="round" stroke-miterlimit="10" x1="240.399" y1="51.749" x2="242.521" y2="53.87"/>
	</g>
</g>
<text transform="matrix(1 0 0 1 112.3862 90.5879)" font-family="'TrebuchetMS'" font-size="18">uli competition</text>
<text transform="matrix(1 0 0 1 112.3862 112.1875)" font-family="'TrebuchetMS'" font-size="18">january 2011</text>
<text transform="matrix(1 0 0 1 112.3862 133.7881)" font-family="'TrebuchetMS'" font-size="18">(Houston, TX)</text>
<circle fill="#FFFFFF" stroke="#000000" stroke-width="2.3881" stroke-miterlimit="10" cx="259.149" cy="74.667" r="10.34"/>
<circle onclick="doStop(&quot;Hotel&quot;)" fill="#FFFFFF" stroke="#808080" stroke-width="2.3881" stroke-miterlimit="10" cx="471.82" cy="565" r="10.34"/>
<text transform="matrix(1 0 0 1 490.167 558.5)" enable-background="new    "><tspan x="0" y="0" fill="#808080" font-family="'TrebuchetMS'" font-size="18">Savannah*</tspan><tspan x="0" y="21.6" fill="#808080" font-family="'TrebuchetMS'" font-size="18">(fall 2013)</tspan></text>
<g>
	<g>
		
			<line fill="none" stroke="#808080" stroke-width="12" stroke-linecap="round" stroke-miterlimit="10" x1="686.465" y1="102.268" x2="683.465" y2="102.268"/>
		
			<line fill="none" stroke="#808080" stroke-width="12" stroke-linecap="round" stroke-miterlimit="10" stroke-dasharray="7,18.6667" x1="664.798" y1="102.269" x2="622.798" y2="102.268"/>
		
			<line fill="none" stroke="#808080" stroke-width="12" stroke-linecap="round" stroke-miterlimit="10" x1="613.465" y1="102.268" x2="610.465" y2="102.268"/>
	</g>
</g>
</svg>
